<svg xmlns="http://www.w3.org/2000/svg" xmlns:xlink="http://www.w3.org/1999/xlink" width="1080" zoomAndPan="magnify" viewBox="0 0 810 809.999993" height="1080" preserveAspectRatio="xMidYMid meet" version="1.0"><defs><clipPath id="12b27f70e6"><path d="M 81 81 L 729 81 L 729 727 L 81 727 Z M 81 81 " clip-rule="nonzero"/></clipPath><clipPath id="61116cdb70"><path d="M 259 200 L 556 200 L 556 729 L 259 729 Z M 259 200 " clip-rule="nonzero"/></clipPath></defs><g clip-path="url(#12b27f70e6)"><path fill="#0866ff" d="M 729.085938 405.058594 C 729.085938 226.074219 584.015625 81 405.058594 81 C 226.101562 81 81 226.074219 81 405.058594 C 81 557.023438 185.617188 684.558594 326.761719 719.578125 L 326.761719 504.089844 L 259.925781 504.089844 L 259.925781 405.058594 L 326.761719 405.058594 L 326.761719 362.390625 C 326.761719 252.101562 376.671875 200.972656 484.953125 200.972656 C 505.488281 200.972656 540.910156 204.988281 555.394531 209.03125 L 555.394531 298.785156 C 547.746094 297.96875 534.453125 297.5625 517.964844 297.5625 C 464.828125 297.5625 444.292969 317.6875 444.292969 370.011719 L 444.292969 405.027344 L 550.132812 405.027344 L 531.953125 504.0625 L 444.292969 504.0625 L 444.292969 726.703125 C 604.75 707.332031 729.085938 570.695312 729.085938 405.027344 Z M 729.085938 405.058594 " fill-opacity="1" fill-rule="nonzero"/></g><g clip-path="url(#61116cdb70)"><path fill="#ffffff" d="M 531.980469 504.0625 L 550.160156 405.027344 L 444.320312 405.027344 L 444.320312 370.011719 C 444.320312 317.6875 464.855469 297.5625 517.992188 297.5625 C 534.484375 297.5625 547.773438 297.96875 555.425781 298.785156 L 555.425781 209.03125 C 540.941406 205.015625 505.515625 200.972656 484.980469 200.972656 C 376.699219 200.972656 326.792969 252.101562 326.792969 362.390625 L 326.792969 405.058594 L 259.957031 405.058594 L 259.957031 504.089844 L 326.792969 504.089844 L 326.792969 719.578125 C 351.863281 725.800781 378.066406 729.117188 405.085938 729.117188 C 418.378906 729.117188 431.464844 728.300781 444.351562 726.730469 L 444.351562 504.089844 L 532.011719 504.089844 Z M 531.980469 504.0625 " fill-opacity="1" fill-rule="nonzero"/></g></svg>