<svg xmlns="http://www.w3.org/2000/svg" xmlns:xlink="http://www.w3.org/1999/xlink" width="1080" zoomAndPan="magnify" viewBox="0 0 810 809.999993" height="1080" preserveAspectRatio="xMidYMid meet" version="1.0"><path fill="#0a66c2" d="M 628.175781 628.824219 L 533.035156 628.824219 L 533.035156 479.78125 C 533.035156 444.253906 532.398438 398.488281 483.554688 398.488281 C 434.710938 398.488281 426.414062 437.226562 426.414062 477.207031 L 426.414062 628.824219 L 331.273438 628.824219 L 331.273438 322.316406 L 422.628906 322.316406 L 422.628906 364.203125 L 423.902344 364.203125 C 442.523438 332.339844 477.167969 313.320312 514.019531 314.683594 C 610.464844 314.683594 628.238281 378.136719 628.238281 460.667969 L 628.238281 628.824219 Z M 223.867188 280.425781 C 193.371094 280.425781 168.632812 255.710938 168.632812 225.214844 C 168.632812 194.714844 193.34375 169.96875 223.835938 169.96875 C 254.328125 169.96875 279.066406 194.683594 279.066406 225.183594 C 279.066406 255.683594 254.359375 280.425781 223.867188 280.425781 M 271.46875 628.824219 L 176.203125 628.824219 L 176.203125 322.316406 L 271.46875 322.316406 Z M 675.628906 81.558594 L 128.390625 81.558594 C 102.53125 81.285156 81.304688 102.003906 81 127.867188 L 81 677.496094 C 81.304688 703.394531 102.5 724.109375 128.390625 723.835938 L 675.628906 723.835938 C 701.546875 724.171875 722.835938 703.421875 723.199219 677.496094 L 723.199219 127.839844 C 722.835938 101.914062 701.546875 81.195312 675.628906 81.527344 " fill-opacity="1" fill-rule="nonzero"/></svg>