<svg xmlns="http://www.w3.org/2000/svg" xmlns:xlink="http://www.w3.org/1999/xlink" width="1080" zoomAndPan="magnify" viewBox="0 0 810 809.999993" height="1080" preserveAspectRatio="xMidYMid meet" version="1.0"><defs><clipPath id="a02db5bbda"><path d="M 81 81 L 729 81 L 729 729 L 81 729 Z M 81 81 " clip-rule="nonzero"/></clipPath></defs><g clip-path="url(#a02db5bbda)"><path fill="#000000" d="M 728.988281 405.03125 C 728.988281 410.332031 728.855469 415.632812 728.597656 420.925781 C 728.335938 426.222656 727.945312 431.511719 727.425781 436.789062 C 726.90625 442.0625 726.257812 447.324219 725.480469 452.566406 C 724.703125 457.8125 723.796875 463.035156 722.761719 468.234375 C 721.726562 473.4375 720.566406 478.605469 719.277344 483.75 C 717.988281 488.894531 716.574219 494.003906 715.035156 499.078125 C 713.496094 504.152344 711.835938 509.183594 710.046875 514.175781 C 708.261719 519.167969 706.355469 524.113281 704.324219 529.011719 C 702.296875 533.910156 700.148438 538.757812 697.882812 543.550781 C 695.613281 548.34375 693.230469 553.078125 690.730469 557.753906 C 688.230469 562.429688 685.621094 567.042969 682.894531 571.589844 C 680.167969 576.136719 677.332031 580.617188 674.386719 585.023438 C 671.441406 589.433594 668.386719 593.765625 665.230469 598.023438 C 662.070312 602.285156 658.808594 606.460938 655.445312 610.5625 C 652.082031 614.660156 648.621094 618.675781 645.058594 622.601562 C 641.5 626.53125 637.84375 630.371094 634.09375 634.121094 C 630.347656 637.867188 626.507812 641.523438 622.578125 645.085938 C 618.648438 648.648438 614.636719 652.109375 610.539062 655.472656 C 606.4375 658.835938 602.261719 662.097656 598 665.253906 C 593.742188 668.414062 589.410156 671.464844 585 674.410156 C 580.589844 677.355469 576.113281 680.191406 571.566406 682.917969 C 567.015625 685.644531 562.40625 688.257812 557.730469 690.757812 C 553.054688 693.257812 548.320312 695.640625 543.523438 697.90625 C 538.730469 700.171875 533.886719 702.320312 528.988281 704.351562 C 524.089844 706.378906 519.144531 708.289062 514.152344 710.074219 C 509.160156 711.859375 504.125 713.523438 499.050781 715.0625 C 493.976562 716.601562 488.871094 718.015625 483.726562 719.304688 C 478.582031 720.589844 473.410156 721.75 468.210938 722.785156 C 463.011719 723.820312 457.789062 724.726562 452.542969 725.503906 C 447.296875 726.285156 442.039062 726.933594 436.761719 727.453125 C 431.484375 727.972656 426.199219 728.363281 420.902344 728.621094 C 415.605469 728.882812 410.308594 729.011719 405.003906 729.011719 C 399.703125 729.011719 394.40625 728.882812 389.109375 728.621094 C 383.8125 728.363281 378.527344 727.972656 373.25 727.453125 C 367.972656 726.933594 362.710938 726.285156 357.46875 725.507812 C 352.222656 724.726562 347 723.820312 341.800781 722.785156 C 336.597656 721.75 331.425781 720.589844 326.285156 719.304688 C 321.140625 718.015625 316.03125 716.601562 310.957031 715.0625 C 305.882812 713.523438 300.851562 711.859375 295.859375 710.074219 C 290.867188 708.289062 285.921875 706.378906 281.023438 704.351562 C 276.125 702.320312 271.277344 700.171875 266.484375 697.90625 C 261.691406 695.640625 256.957031 693.257812 252.28125 690.757812 C 247.605469 688.257812 242.992188 685.644531 238.445312 682.917969 C 233.898438 680.191406 229.417969 677.355469 225.011719 674.410156 C 220.601562 671.464844 216.269531 668.414062 212.011719 665.253906 C 207.75 662.097656 203.574219 658.835938 199.472656 655.472656 C 195.375 652.109375 191.363281 648.648438 187.433594 645.085938 C 183.503906 641.523438 179.664062 637.867188 175.914062 634.121094 C 172.167969 630.371094 168.511719 626.53125 164.949219 622.601562 C 161.390625 618.671875 157.929688 614.660156 154.5625 610.5625 C 151.199219 606.460938 147.9375 602.285156 144.78125 598.023438 C 141.621094 593.765625 138.570312 589.433594 135.625 585.023438 C 132.679688 580.617188 129.84375 576.136719 127.117188 571.589844 C 124.390625 567.042969 121.777344 562.429688 119.277344 557.753906 C 116.78125 553.078125 114.394531 548.34375 112.128906 543.550781 C 109.863281 538.757812 107.714844 533.910156 105.683594 529.011719 C 103.65625 524.113281 101.75 519.167969 99.960938 514.175781 C 98.175781 509.183594 96.511719 504.152344 94.972656 499.078125 C 93.433594 494 92.023438 488.894531 90.734375 483.75 C 89.445312 478.605469 88.285156 473.433594 87.25 468.234375 C 86.214844 463.035156 85.308594 457.8125 84.53125 452.566406 C 83.753906 447.324219 83.105469 442.0625 82.582031 436.785156 C 82.0625 431.511719 81.675781 426.222656 81.414062 420.925781 C 81.152344 415.632812 81.023438 410.332031 81.023438 405.03125 C 81.023438 399.730469 81.152344 394.429688 81.414062 389.132812 C 81.675781 383.839844 82.0625 378.550781 82.582031 373.273438 C 83.105469 367.996094 83.753906 362.734375 84.53125 357.492188 C 85.308594 352.246094 86.214844 347.023438 87.25 341.824219 C 88.285156 336.621094 89.445312 331.453125 90.734375 326.308594 C 92.019531 321.164062 93.433594 316.058594 94.972656 310.984375 C 96.511719 305.910156 98.175781 300.875 99.960938 295.882812 C 101.75 290.890625 103.65625 285.945312 105.683594 281.046875 C 107.714844 276.144531 109.863281 271.300781 112.128906 266.507812 C 114.394531 261.714844 116.78125 256.980469 119.277344 252.304688 C 121.777344 247.628906 124.390625 243.015625 127.117188 238.46875 C 129.84375 233.917969 132.679688 229.441406 135.625 225.03125 C 138.570312 220.625 141.621094 216.292969 144.78125 212.035156 C 147.9375 207.773438 151.199219 203.597656 154.5625 199.496094 C 157.929688 195.398438 161.390625 191.382812 164.949219 187.457031 C 168.511719 183.527344 172.167969 179.6875 175.914062 175.941406 C 179.664062 172.191406 183.503906 168.535156 187.433594 164.972656 C 191.359375 161.414062 195.375 157.953125 199.472656 154.589844 C 203.574219 151.222656 207.75 147.960938 212.007812 144.804688 C 216.269531 141.644531 220.601562 138.59375 225.011719 135.648438 C 229.417969 132.703125 233.898438 129.867188 238.445312 127.140625 C 242.992188 124.414062 247.605469 121.804688 252.28125 119.304688 C 256.957031 116.804688 261.691406 114.421875 266.484375 112.15625 C 271.277344 109.886719 276.125 107.738281 281.023438 105.710938 C 285.921875 103.679688 290.867188 101.773438 295.859375 99.988281 C 300.851562 98.203125 305.882812 96.539062 310.957031 95 C 316.03125 93.460938 321.140625 92.046875 326.285156 90.757812 C 331.425781 89.46875 336.597656 88.308594 341.800781 87.273438 C 347 86.238281 352.222656 85.332031 357.46875 84.554688 C 362.710938 83.777344 367.972656 83.128906 373.25 82.609375 C 378.527344 82.089844 383.8125 81.699219 389.109375 81.441406 C 394.40625 81.179688 399.703125 81.050781 405.003906 81.050781 C 410.308594 81.050781 415.605469 81.179688 420.902344 81.441406 C 426.199219 81.699219 431.484375 82.089844 436.761719 82.609375 C 442.039062 83.128906 447.296875 83.777344 452.542969 84.554688 C 457.789062 85.335938 463.011719 86.238281 468.210938 87.273438 C 473.410156 88.308594 478.582031 89.46875 483.726562 90.757812 C 488.871094 92.046875 493.976562 93.460938 499.050781 95 C 504.125 96.539062 509.160156 98.203125 514.152344 99.988281 C 519.144531 101.773438 524.089844 103.683594 528.988281 105.710938 C 533.886719 107.742188 538.730469 109.886719 543.523438 112.15625 C 548.320312 114.421875 553.054688 116.804688 557.730469 119.304688 C 562.40625 121.804688 567.015625 124.417969 571.566406 127.144531 C 576.113281 129.867188 580.589844 132.703125 585 135.648438 C 589.410156 138.597656 593.742188 141.648438 598 144.804688 C 602.261719 147.964844 606.4375 151.226562 610.539062 154.589844 C 614.636719 157.953125 618.648438 161.414062 622.578125 164.976562 C 626.507812 168.539062 630.347656 172.191406 634.09375 175.941406 C 637.84375 179.691406 641.5 183.53125 645.058594 187.457031 C 648.621094 191.386719 652.082031 195.398438 655.445312 199.5 C 658.808594 203.597656 662.070312 207.777344 665.230469 212.035156 C 668.386719 216.292969 671.441406 220.628906 674.386719 225.035156 C 677.332031 229.445312 680.167969 233.921875 682.894531 238.46875 C 685.621094 243.019531 688.230469 247.632812 690.730469 252.308594 C 693.230469 256.984375 695.613281 261.71875 697.882812 266.507812 C 700.148438 271.304688 702.296875 276.148438 704.324219 281.046875 C 706.355469 285.945312 708.261719 290.890625 710.046875 295.882812 C 711.835938 300.875 713.496094 305.910156 715.035156 310.984375 C 716.574219 316.058594 717.988281 321.164062 719.277344 326.308594 C 720.566406 331.453125 721.726562 336.621094 722.761719 341.824219 C 723.796875 347.023438 724.703125 352.246094 725.480469 357.492188 C 726.257812 362.738281 726.90625 367.996094 727.425781 373.273438 C 727.945312 378.550781 728.335938 383.835938 728.597656 389.132812 C 728.855469 394.429688 728.988281 399.730469 728.988281 405.03125 Z M 728.988281 405.03125 " fill-opacity="1" fill-rule="nonzero"/></g><path fill="#ffffff" d="M 408.25 606.464844 L 408.007812 606.464844 C 347.898438 606.0625 301.691406 586.242188 270.632812 547.566406 C 243.035156 513.125 228.773438 465.222656 228.289062 405.195312 L 228.289062 404.914062 C 228.773438 344.847656 243.035156 296.988281 270.671875 262.542969 C 301.691406 223.828125 347.941406 204.007812 408.007812 203.605469 L 408.25 203.605469 C 454.335938 203.925781 492.890625 215.773438 522.824219 238.816406 C 550.984375 260.488281 570.804688 291.347656 581.722656 330.585938 L 547.476562 340.136719 C 528.945312 273.664062 482.054688 239.703125 408.085938 239.179688 C 359.261719 239.539062 322.316406 254.890625 298.308594 284.78125 C 275.867188 312.78125 264.265625 353.226562 263.824219 405.035156 C 264.265625 456.84375 275.867188 497.292969 298.347656 525.289062 C 322.359375 555.222656 359.300781 570.570312 408.128906 570.894531 C 452.160156 570.570312 481.289062 560.296875 505.5 536.570312 C 533.136719 509.496094 532.652344 476.261719 523.789062 456.039062 C 518.59375 444.113281 509.125 434.203125 496.355469 426.667969 C 493.132812 449.351562 485.921875 467.722656 474.800781 481.578125 C 459.9375 500.070312 438.867188 510.183594 412.195312 511.632812 C 392.011719 512.71875 372.554688 507.96875 357.488281 498.175781 C 339.640625 486.617188 329.207031 468.96875 328.078125 448.425781 C 326.992188 428.441406 334.925781 410.070312 350.398438 396.695312 C 365.183594 383.925781 385.96875 376.433594 410.542969 375.023438 C 428.632812 374.015625 445.59375 374.820312 461.226562 377.398438 C 459.128906 364.953125 454.941406 355.039062 448.65625 347.910156 C 440.035156 338.082031 426.699219 333.085938 409.054688 332.964844 L 408.570312 332.964844 C 394.390625 332.964844 375.132812 336.871094 362.886719 355.121094 L 333.398438 335.339844 C 349.832031 310.925781 376.503906 297.472656 408.570312 297.472656 L 409.296875 297.472656 C 462.917969 297.792969 494.863281 330.628906 498.046875 387.914062 C 499.859375 388.679688 501.671875 389.484375 503.445312 390.292969 C 528.460938 402.054688 546.753906 419.859375 556.382812 441.816406 C 569.757812 472.394531 571.003906 522.226562 530.394531 561.992188 C 499.335938 592.367188 461.667969 606.105469 408.25 606.464844 Z M 424.96875 410.234375 C 420.898438 410.234375 416.789062 410.355469 412.558594 410.59375 C 381.742188 412.328125 362.523438 426.46875 363.613281 446.570312 C 364.738281 467.640625 387.984375 477.429688 410.34375 476.222656 C 430.890625 475.132812 457.640625 467.117188 462.152344 413.9375 C 450.789062 411.480469 438.34375 410.234375 424.96875 410.234375 Z M 424.96875 410.234375 " fill-opacity="1" fill-rule="nonzero"/></svg>