<svg xmlns="http://www.w3.org/2000/svg" xmlns:xlink="http://www.w3.org/1999/xlink" width="1080" zoomAndPan="magnify" viewBox="0 0 810 809.999993" height="1080" preserveAspectRatio="xMidYMid meet" version="1.0"><path fill="#5757ff" d="M 355.839844 375.960938 L 504.648438 375.960938 L 504.648438 213.484375 L 310.667969 213.484375 L 310.667969 321.675781 C 320.15625 307.25 340.277344 302.695312 356.21875 311.425781 C 356.21875 311.804688 356.597656 311.804688 356.597656 311.804688 C 364.191406 316.738281 369.125 324.332031 371.402344 332.683594 C 373.300781 341.792969 371.785156 350.527344 366.847656 358.117188 Z M 355.839844 375.960938 " fill-opacity="1" fill-rule="evenodd"/><path fill="#5757ff" d="M 512.621094 391.902344 L 346.351562 391.902344 L 328.128906 421.511719 C 333.441406 421.511719 339.136719 422.652344 344.453125 425.6875 C 344.453125 425.6875 344.832031 426.070312 344.832031 426.070312 C 356.980469 434.039062 362.671875 448.085938 360.394531 461.371094 C 367.226562 460.992188 374.0625 462.890625 380.136719 466.6875 C 391.902344 474.660156 397.597656 487.945312 395.699219 500.851562 C 402.910156 500.472656 409.746094 501.992188 415.820312 506.167969 C 424.550781 511.859375 429.863281 520.972656 431.382812 530.84375 L 530.839844 530.84375 C 540.332031 530.84375 550.582031 522.871094 550.582031 511.101562 L 550.582031 105.675781 C 550.582031 95.804688 541.089844 86.316406 530.839844 86.316406 L 492.121094 86.316406 L 468.207031 125.792969 C 466.6875 128.070312 464.03125 129.589844 461.371094 129.589844 L 348.628906 129.589844 C 345.96875 129.589844 343.3125 128.070312 341.792969 125.792969 L 317.878906 86.316406 L 279.15625 86.316406 C 268.910156 86.316406 259.417969 95.804688 259.417969 105.675781 L 259.417969 404.808594 L 294.722656 347.109375 L 294.722656 205.511719 C 294.722656 201.335938 298.140625 197.542969 302.695312 197.542969 L 512.621094 197.542969 C 516.796875 197.542969 520.210938 201.335938 520.210938 205.511719 L 520.210938 383.929688 C 520.210938 388.105469 516.796875 391.902344 512.621094 391.902344 Z M 512.621094 391.902344 " fill-opacity="1" fill-rule="evenodd"/><path fill="#5757ff" d="M 353.183594 113.648438 L 456.816406 113.648438 L 473.519531 86.316406 L 336.480469 86.316406 Z M 353.183594 113.648438 " fill-opacity="1" fill-rule="evenodd"/><path fill="#5757ff" d="M 268.910156 517.933594 C 267.390625 520.210938 264.734375 521.730469 262.074219 521.730469 C 260.558594 521.730469 259.039062 521.351562 257.898438 520.59375 C 254.105469 518.316406 252.964844 513.378906 255.242188 509.582031 L 300.035156 437.457031 L 300.035156 437.078125 L 301.175781 435.558594 L 353.941406 349.386719 C 353.941406 349.386719 353.941406 349.386719 353.941406 349.007812 C 356.597656 345.210938 357.359375 340.65625 356.21875 336.101562 C 355.082031 331.542969 352.421875 327.75 348.628906 324.710938 C 341.035156 320.914062 329.648438 321.675781 323.953125 330.40625 L 310.285156 352.042969 C 310.285156 354.320312 308.769531 356.21875 307.25 357.738281 L 219.179688 500.472656 C 217.660156 503.128906 214.625 504.648438 211.585938 504.269531 C 208.550781 503.890625 205.894531 501.992188 204.753906 498.953125 L 185.394531 442.773438 C 178.5625 421.894531 159.578125 394.179688 143.257812 397.976562 L 124.277344 401.773438 L 156.921875 602.96875 C 157.300781 604.105469 156.921875 605.246094 156.542969 606.765625 L 144.015625 646.625 L 268.148438 723.683594 L 304.59375 679.269531 C 305.351562 678.511719 306.109375 677.753906 307.25 676.992188 L 339.136719 662.1875 L 413.921875 543.75 C 414.679688 542.609375 415.058594 541.089844 415.4375 539.953125 L 415.4375 538.8125 C 415.4375 537.675781 415.820312 536.535156 416.199219 535.777344 C 416.199219 529.324219 412.78125 522.871094 407.085938 519.074219 C 403.292969 516.417969 398.738281 515.65625 394.179688 516.796875 C 390.765625 517.554688 387.726562 519.074219 385.828125 521.730469 L 384.691406 523.25 L 384.3125 524.386719 L 339.515625 596.515625 C 338 598.792969 335.339844 600.3125 332.683594 600.3125 C 331.542969 600.3125 330.027344 599.929688 328.886719 599.171875 C 325.089844 596.894531 323.953125 591.960938 326.230469 588.164062 L 370.265625 516.796875 L 370.644531 516.417969 C 371.402344 515.277344 372.164062 513.757812 372.921875 512.621094 L 378.617188 504.269531 C 383.171875 496.296875 380.136719 485.289062 371.785156 479.59375 C 367.988281 477.316406 363.050781 476.175781 358.875 477.316406 C 354.320312 478.457031 350.527344 480.734375 347.867188 484.527344 L 347.488281 485.289062 L 303.074219 557.414062 C 301.175781 559.691406 298.519531 560.832031 296.242188 560.832031 C 294.722656 560.832031 293.203125 560.453125 292.066406 559.691406 C 288.269531 557.414062 287.128906 552.859375 289.40625 548.683594 L 333.824219 477.316406 L 334.203125 476.558594 L 335.339844 475.039062 L 343.3125 463.648438 C 347.488281 455.296875 344.832031 444.289062 336.859375 438.976562 C 328.886719 434.800781 319.015625 437.078125 314.460938 443.910156 L 314.082031 444.667969 C 313.703125 445.050781 313.703125 445.429688 313.324219 445.808594 Z M 268.910156 517.933594 " fill-opacity="1" fill-rule="evenodd"/><path fill="#5757ff" d="M 624.984375 193.746094 L 566.144531 193.746094 L 566.144531 177.800781 L 624.984375 177.800781 C 628.402344 165.652344 639.410156 156.921875 652.699219 156.921875 C 669.019531 156.921875 681.546875 169.828125 681.546875 185.773438 C 681.546875 202.097656 669.019531 214.625 652.699219 214.625 C 639.410156 214.625 628.402344 205.894531 624.984375 193.746094 Z M 700.148438 293.203125 C 686.484375 293.203125 675.472656 284.472656 672.058594 272.324219 L 566.144531 272.324219 L 566.144531 256.761719 L 672.058594 256.761719 C 675.472656 244.613281 686.484375 235.503906 700.148438 235.503906 C 716.09375 235.503906 729 248.410156 729 264.351562 C 729 280.675781 716.09375 293.203125 700.148438 293.203125 Z M 652.699219 370.644531 C 639.789062 370.644531 628.78125 362.292969 624.984375 351.285156 L 566.144531 351.285156 L 566.144531 335.339844 L 624.984375 335.339844 C 628.402344 323.191406 639.410156 314.460938 652.699219 314.460938 C 669.019531 314.460938 681.546875 326.988281 681.546875 343.3125 C 681.546875 358.496094 668.640625 370.644531 652.699219 370.644531 Z M 156.921875 214.625 C 140.980469 214.625 128.070312 202.097656 128.070312 185.773438 C 128.070312 169.828125 140.980469 156.921875 156.921875 156.921875 C 170.589844 156.921875 181.597656 165.652344 185.015625 177.800781 L 243.472656 177.800781 L 243.472656 193.746094 L 185.015625 193.746094 C 181.597656 205.894531 170.589844 214.625 156.921875 214.625 Z M 109.851562 293.203125 C 93.90625 293.203125 81 280.675781 81 264.351562 C 81 248.410156 93.90625 235.503906 109.851562 235.503906 C 123.136719 235.503906 134.144531 244.613281 137.5625 256.761719 L 243.472656 256.761719 L 243.472656 272.324219 L 137.5625 272.324219 C 134.144531 284.472656 123.136719 293.203125 109.851562 293.203125 Z M 156.921875 370.644531 C 141.359375 370.644531 128.070312 358.496094 128.070312 343.3125 C 128.070312 326.988281 140.980469 314.460938 156.921875 314.460938 C 170.589844 314.460938 181.597656 323.191406 185.015625 335.339844 L 243.472656 335.339844 L 243.472656 351.285156 L 184.632812 351.285156 C 181.21875 362.292969 170.210938 370.644531 156.921875 370.644531 Z M 156.921875 370.644531 " fill-opacity="1" fill-rule="evenodd"/></svg>