<svg xmlns="http://www.w3.org/2000/svg" xmlns:xlink="http://www.w3.org/1999/xlink" width="1080" zoomAndPan="magnify" viewBox="0 0 810 809.999993" height="1080" preserveAspectRatio="xMidYMid meet" version="1.0"><path fill="#5757ff" d="M 340.023438 88.503906 C 318.945312 84.851562 295.710938 94.710938 284.921875 113.457031 C 281.894531 118.316406 278.214844 125.246094 271.261719 123.710938 C 252.734375 120.625 233.121094 122.652344 216.84375 132.507812 C 188.054688 148.535156 172.554688 187.269531 187.429688 217.714844 C 191.824219 225.105469 185.714844 235.246094 177.300781 235.527344 C 152.222656 239.421875 130.085938 260.914062 128.648438 286.769531 C 127.5 297.9375 131.085938 308.785156 136.480469 318.425781 C 141.316406 325.253906 137.730469 335.761719 129.558594 337.890625 C 103.765625 346.835938 81.160156 376.28125 91.574219 404.03125 C 94.976562 416.042969 104.640625 424.238281 112.8125 433.035156 C 118.175781 439.398438 112.597656 447.664062 111.503906 454.492188 C 124.164062 440.273438 141.667969 431.226562 160.40625 428.289062 C 173.90625 393.265625 214.914062 372.527344 251.125 382.695312 C 262.574219 386.871094 261.445312 405.902344 249.222656 408.292969 C 237.964844 408.328125 226.363281 404.992188 215.449219 409.386719 C 197.953125 414.597656 186.503906 430.660156 181.734375 447.5625 C 178.992188 455.917969 168.792969 454.515625 161.929688 455.824219 C 140.40625 458.226562 123.320312 477.125 120.417969 498.210938 C 129.824219 505.726562 126.488281 518.828125 131.851562 528.558594 C 141.582031 550.890625 166.75 563.421875 190.484375 561.339844 C 197.871094 560.277344 204.824219 566.300781 204.550781 573.871094 C 202.089844 586.164062 195.660156 598.230469 198.222656 611.136719 C 202 637.273438 226.324219 657.953125 252.582031 658.386719 C 261.753906 657.542969 271.480469 660.539062 275.191406 669.734375 C 290.316406 698.929688 331.578125 707.035156 358.085938 688.789062 C 374.523438 678.433594 383.84375 658.785156 382.726562 639.550781 C 382.261719 595.078125 383.410156 550.539062 382.167969 506.132812 C 375.773438 494.320312 378.175781 479.96875 371.253906 468.335938 C 360.246094 447.003906 334.921875 435.277344 311.4375 438.113281 C 288.582031 440.390625 266.75 455.234375 258.613281 477.15625 C 283.652344 485.171875 305.203125 508.996094 302.582031 536.503906 C 301.273438 548.761719 281.378906 550.699219 277.449219 539.28125 C 275.640625 530.644531 275.582031 520.851562 269.027344 514.113281 C 256.609375 498.863281 230.507812 499.398438 218.71875 515.117188 C 212.105469 522.289062 213.480469 532.675781 210.296875 541.214844 C 204.558594 550.574219 187.246094 547.886719 185.972656 536.445312 C 183.410156 508.628906 205.402344 483.050781 232.070312 477.441406 C 239.707031 446.8125 265.40625 422.429688 296.035156 415.40625 C 326.722656 406.734375 360.996094 417.058594 382.828125 440.074219 C 382.578125 378.574219 382.644531 317.042969 382.769531 255.542969 C 357.636719 276.40625 322.671875 286.605469 290.765625 277.121094 C 276.265625 272.261719 260.828125 266.425781 250.566406 254.574219 C 243.917969 244.59375 256.269531 231.027344 266.71875 235.679688 C 275.730469 241.132812 284.277344 247.652344 294.535156 250.679688 C 315.398438 258.101562 339.441406 254.765625 357.628906 242.199219 C 370.910156 233.308594 383.546875 219.808594 383.921875 202.933594 C 384.105469 181.066406 384.046875 159.210938 383.921875 137.347656 C 383.902344 113.148438 363.355469 92.214844 340.023438 88.503906 Z M 340.023438 88.503906 " fill-opacity="1" fill-rule="nonzero"/><path fill="#5757ff" d="M 680.835938 351.074219 C 674.941406 344.652344 680.550781 336.039062 681.835938 328.933594 C 669.363281 343.308594 651.742188 352.289062 633.0625 355.25 C 618.902344 390.089844 578.984375 411.820312 542.152344 402.714844 C 529.710938 399.65625 529.835938 379.632812 542.367188 376.707031 C 552.910156 376.207031 563.667969 379.917969 574.023438 376.332031 C 592.328125 371.871094 605.144531 355.683594 609.980469 338.097656 C 612.382812 329.082031 623.082031 330.457031 630.253906 329.148438 C 651.648438 326.621094 668.519531 307.851562 671.570312 286.921875 C 666.019531 282.058594 664.273438 275.164062 663.683594 268.117188 C 659.128906 241.050781 631.71875 221.925781 604.894531 223.679688 C 596.914062 225.273438 587.308594 220.808594 587.457031 211.671875 C 589.675781 198.386719 597.0625 185.378906 593.320312 171.5625 C 588.207031 144.117188 560.699219 124.4375 533.1875 126.429688 C 521.519531 128.332031 518.4375 115.230469 512.449219 108.25 C 491.925781 82.210938 448.480469 80.964844 425.78125 104.789062 C 413.898438 117.550781 407.035156 135.167969 407.910156 152.664062 C 408.09375 200.503906 407.851562 248.378906 408.003906 296.21875 C 408.128906 322.320312 429.894531 344.433594 454.96875 348.804688 C 483.847656 354.574219 516 338.546875 526.792969 310.695312 C 502.214844 302.488281 480.976562 279.792969 482.503906 252.589844 C 482.445312 239.804688 502.117188 236.4375 507.511719 247.285156 C 509.789062 255.984375 509.253906 266.058594 515.902344 273.078125 C 527.941406 288.488281 553.882812 288.488281 566.050781 273.171875 C 572.695312 266.125 572.195312 255.957031 574.53125 247.160156 C 580.019531 236.496094 599.324219 239.832031 599.480469 252.464844 C 601.132812 280.035156 579.277344 304.699219 552.949219 310.378906 C 543.46875 351.796875 499.839844 379.117188 458.546875 374.8125 C 439.707031 373.3125 422.648438 363.964844 407.929688 352.640625 C 407.988281 401.140625 407.894531 449.628906 407.988281 498.164062 C 423.023438 497.195312 436.988281 490.273438 452.082031 489.773438 C 472.890625 489 493.996094 496.476562 509.222656 510.761719 C 523.5625 524.488281 532.179688 543.542969 534.761719 563.097656 C 555.660156 575.414062 567.203125 604.140625 554.5 626.097656 C 547.796875 635.546875 532.203125 628.15625 532.488281 617.585938 C 532.644531 609.878906 535.664062 601.558594 531.519531 594.351562 C 526.15625 583.09375 511.089844 578.042969 500.171875 584.371094 C 492.191406 587.988281 490.226562 597.3125 484.671875 603.300781 C 478.25 608.878906 467.675781 606.078125 464.339844 598.464844 C 460.539062 590.574219 465.933594 582.277344 469.953125 575.664062 C 478.34375 562.722656 493.378906 556.359375 508.128906 554.117188 C 502.140625 535.3125 486.921875 519.878906 467.242188 516.007812 C 447.253906 510.363281 429.042969 523.679688 409.261719 523.335938 C 409.320312 566.191406 409.078125 609.011719 409.355469 651.855469 C 410.289062 677.339844 433.585938 698.386719 458.503906 699.765625 C 479.117188 701.480469 499.699219 690.441406 510.554688 673.003906 C 513.550781 669.292969 515.574219 663.738281 520.789062 662.679688 C 525.898438 662.246094 530.984375 663.398438 536.097656 663.683594 C 566.410156 666.550781 597.753906 648.089844 609.011719 619.609375 C 616.183594 603.082031 615.933594 583.710938 608.113281 567.5 C 604.09375 559.519531 611.699219 550.40625 620.027344 550.472656 C 648.03125 545.851562 671.203125 518.285156 667.027344 489.441406 C 666.617188 479.183594 659.695312 470.976562 657.078125 461.40625 C 656.488281 451.890625 665.683594 448.394531 672.832031 445.378906 C 696.972656 434.871094 711.191406 405.140625 701.867188 380.042969 C 698.429688 368.125 689.199219 359.644531 680.835938 351.074219 Z M 680.835938 351.074219 " fill-opacity="1" fill-rule="nonzero"/></svg>