<svg xmlns="http://www.w3.org/2000/svg" xmlns:xlink="http://www.w3.org/1999/xlink" width="1080" zoomAndPan="magnify" viewBox="0 0 810 809.999993" height="1080" preserveAspectRatio="xMidYMid meet" version="1.0"><path fill="#5757ff" d="M 729 405 C 729 410.300781 728.871094 415.601562 728.609375 420.898438 C 728.347656 426.195312 727.960938 431.480469 727.441406 436.757812 C 726.921875 442.035156 726.269531 447.296875 725.492188 452.539062 C 724.714844 457.785156 723.808594 463.007812 722.773438 468.210938 C 721.738281 473.410156 720.578125 478.582031 719.289062 483.726562 C 718 488.867188 716.585938 493.976562 715.046875 499.050781 C 713.507812 504.125 711.847656 509.160156 710.058594 514.152344 C 708.273438 519.144531 706.367188 524.089844 704.335938 528.988281 C 702.308594 533.886719 700.160156 538.734375 697.890625 543.527344 C 695.625 548.320312 693.242188 553.054688 690.742188 557.734375 C 688.242188 562.410156 685.628906 567.019531 682.902344 571.570312 C 680.179688 576.117188 677.34375 580.597656 674.394531 585.003906 C 671.449219 589.414062 668.398438 593.746094 665.238281 598.007812 C 662.082031 602.265625 658.820312 606.445312 655.457031 610.542969 C 652.089844 614.640625 648.628906 618.65625 645.066406 622.585938 C 641.507812 626.515625 637.851562 630.351562 634.101562 634.101562 C 630.351562 637.851562 626.515625 641.507812 622.585938 645.066406 C 618.65625 648.628906 614.640625 652.089844 610.542969 655.457031 C 606.445312 658.820312 602.265625 662.082031 598.007812 665.238281 C 593.746094 668.398438 589.414062 671.449219 585.003906 674.394531 C 580.597656 677.34375 576.117188 680.179688 571.570312 682.902344 C 567.019531 685.628906 562.410156 688.242188 557.734375 690.742188 C 553.054688 693.242188 548.320312 695.625 543.527344 697.890625 C 538.734375 700.160156 533.886719 702.308594 528.988281 704.335938 C 524.089844 706.367188 519.144531 708.273438 514.152344 710.058594 C 509.160156 711.847656 504.125 713.507812 499.050781 715.046875 C 493.976562 716.585938 488.867188 718 483.726562 719.289062 C 478.582031 720.578125 473.410156 721.738281 468.210938 722.773438 C 463.007812 723.808594 457.785156 724.714844 452.539062 725.492188 C 447.296875 726.269531 442.035156 726.921875 436.757812 727.441406 C 431.480469 727.960938 426.195312 728.347656 420.898438 728.609375 C 415.601562 728.871094 410.300781 729 405 729 C 399.699219 729 394.398438 728.871094 389.101562 728.609375 C 383.804688 728.347656 378.519531 727.960938 373.242188 727.441406 C 367.964844 726.921875 362.703125 726.269531 357.460938 725.492188 C 352.214844 724.714844 346.992188 723.808594 341.789062 722.773438 C 336.589844 721.738281 331.417969 720.578125 326.273438 719.289062 C 321.128906 718 316.023438 716.585938 310.949219 715.046875 C 305.875 713.507812 300.839844 711.847656 295.847656 710.058594 C 290.855469 708.273438 285.910156 706.367188 281.011719 704.335938 C 276.113281 702.308594 271.265625 700.160156 266.472656 697.890625 C 261.679688 695.625 256.945312 693.242188 252.265625 690.742188 C 247.589844 688.242188 242.980469 685.628906 238.429688 682.902344 C 233.882812 680.179688 229.402344 677.34375 224.996094 674.394531 C 220.585938 671.449219 216.253906 668.398438 211.992188 665.238281 C 207.734375 662.082031 203.554688 658.820312 199.457031 655.457031 C 195.359375 652.089844 191.34375 648.628906 187.414062 645.066406 C 183.484375 641.507812 179.648438 637.851562 175.898438 634.101562 C 172.148438 630.351562 168.492188 626.515625 164.933594 622.585938 C 161.371094 618.65625 157.910156 614.640625 154.542969 610.542969 C 151.179688 606.445312 147.917969 602.265625 144.761719 598.007812 C 141.601562 593.746094 138.550781 589.414062 135.605469 585.003906 C 132.65625 580.597656 129.820312 576.117188 127.097656 571.570312 C 124.371094 567.019531 121.757812 562.410156 119.257812 557.734375 C 116.757812 553.054688 114.375 548.320312 112.109375 543.527344 C 109.839844 538.734375 107.691406 533.886719 105.664062 528.988281 C 103.632812 524.089844 101.726562 519.144531 99.941406 514.152344 C 98.152344 509.160156 96.492188 504.125 94.953125 499.050781 C 93.410156 493.976562 92 488.867188 90.710938 483.726562 C 89.421875 478.582031 88.261719 473.410156 87.226562 468.210938 C 86.191406 463.007812 85.285156 457.785156 84.507812 452.539062 C 83.730469 447.296875 83.078125 442.035156 82.558594 436.757812 C 82.039062 431.480469 81.652344 426.195312 81.390625 420.898438 C 81.128906 415.601562 81 410.300781 81 405 C 81 399.699219 81.128906 394.398438 81.390625 389.101562 C 81.652344 383.804688 82.039062 378.519531 82.558594 373.242188 C 83.078125 367.964844 83.730469 362.703125 84.507812 357.460938 C 85.285156 352.214844 86.191406 346.992188 87.226562 341.789062 C 88.261719 336.589844 89.421875 331.417969 90.710938 326.273438 C 92 321.128906 93.410156 316.023438 94.953125 310.949219 C 96.492188 305.875 98.152344 300.839844 99.941406 295.847656 C 101.726562 290.855469 103.632812 285.910156 105.664062 281.011719 C 107.691406 276.113281 109.839844 271.265625 112.109375 266.472656 C 114.375 261.679688 116.757812 256.945312 119.257812 252.265625 C 121.757812 247.589844 124.371094 242.980469 127.097656 238.429688 C 129.820312 233.882812 132.65625 229.402344 135.605469 224.996094 C 138.550781 220.585938 141.601562 216.253906 144.761719 211.992188 C 147.917969 207.734375 151.179688 203.554688 154.542969 199.457031 C 157.910156 195.359375 161.371094 191.34375 164.933594 187.414062 C 168.492188 183.484375 172.148438 179.648438 175.898438 175.898438 C 179.648438 172.148438 183.484375 168.492188 187.414062 164.933594 C 191.34375 161.371094 195.359375 157.910156 199.457031 154.542969 C 203.554688 151.179688 207.734375 147.917969 211.992188 144.761719 C 216.253906 141.601562 220.585938 138.550781 224.996094 135.605469 C 229.402344 132.65625 233.882812 129.820312 238.429688 127.097656 C 242.980469 124.371094 247.589844 121.757812 252.265625 119.257812 C 256.945312 116.757812 261.679688 114.375 266.472656 112.109375 C 271.265625 109.839844 276.113281 107.691406 281.011719 105.664062 C 285.910156 103.632812 290.855469 101.726562 295.847656 99.941406 C 300.839844 98.152344 305.875 96.492188 310.949219 94.953125 C 316.023438 93.414062 321.128906 92 326.273438 90.710938 C 331.417969 89.421875 336.589844 88.261719 341.789062 87.226562 C 346.992188 86.191406 352.214844 85.285156 357.460938 84.507812 C 362.703125 83.730469 367.964844 83.078125 373.242188 82.558594 C 378.519531 82.039062 383.804688 81.652344 389.101562 81.390625 C 394.398438 81.128906 399.699219 81 405 81 C 410.300781 81 415.601562 81.128906 420.898438 81.390625 C 426.195312 81.652344 431.480469 82.039062 436.757812 82.558594 C 442.035156 83.078125 447.296875 83.730469 452.539062 84.507812 C 457.785156 85.285156 463.007812 86.191406 468.210938 87.226562 C 473.410156 88.261719 478.582031 89.421875 483.726562 90.710938 C 488.867188 92 493.976562 93.414062 499.050781 94.953125 C 504.125 96.492188 509.160156 98.152344 514.152344 99.941406 C 519.144531 101.726562 524.089844 103.632812 528.988281 105.664062 C 533.886719 107.691406 538.734375 109.839844 543.527344 112.109375 C 548.320312 114.375 553.054688 116.757812 557.734375 119.257812 C 562.410156 121.757812 567.019531 124.371094 571.570312 127.097656 C 576.117188 129.820312 580.597656 132.65625 585.003906 135.605469 C 589.414062 138.550781 593.746094 141.601562 598.007812 144.761719 C 602.265625 147.917969 606.445312 151.179688 610.542969 154.542969 C 614.640625 157.910156 618.65625 161.371094 622.585938 164.933594 C 626.515625 168.492188 630.351562 172.148438 634.101562 175.898438 C 637.851562 179.648438 641.507812 183.484375 645.066406 187.414062 C 648.628906 191.34375 652.089844 195.359375 655.457031 199.457031 C 658.820312 203.554688 662.082031 207.734375 665.238281 211.992188 C 668.398438 216.253906 671.449219 220.585938 674.394531 224.996094 C 677.34375 229.402344 680.179688 233.882812 682.902344 238.429688 C 685.628906 242.980469 688.242188 247.589844 690.742188 252.265625 C 693.242188 256.945312 695.625 261.679688 697.890625 266.472656 C 700.160156 271.265625 702.308594 276.113281 704.335938 281.011719 C 706.367188 285.910156 708.273438 290.855469 710.058594 295.847656 C 711.847656 300.839844 713.507812 305.875 715.046875 310.949219 C 716.585938 316.023438 718 321.128906 719.289062 326.273438 C 720.578125 331.417969 721.738281 336.589844 722.773438 341.789062 C 723.808594 346.992188 724.714844 352.214844 725.492188 357.460938 C 726.269531 362.703125 726.921875 367.964844 727.441406 373.242188 C 727.960938 378.519531 728.347656 383.804688 728.609375 389.101562 C 728.871094 394.398438 729 399.699219 729 405 Z M 729 405 " fill-opacity="1" fill-rule="nonzero"/><path fill="#5757ff" d="M 668.734375 405 C 668.734375 409.316406 668.628906 413.628906 668.417969 417.941406 C 668.207031 422.253906 667.890625 426.554688 667.464844 430.851562 C 667.042969 435.144531 666.515625 439.429688 665.882812 443.699219 C 665.25 447.96875 664.511719 452.21875 663.667969 456.453125 C 662.828125 460.6875 661.882812 464.894531 660.832031 469.082031 C 659.785156 473.269531 658.632812 477.429688 657.378906 481.558594 C 656.125 485.6875 654.773438 489.785156 653.320312 493.851562 C 651.863281 497.914062 650.3125 501.941406 648.660156 505.925781 C 647.007812 509.914062 645.261719 513.859375 643.414062 517.761719 C 641.570312 521.664062 639.628906 525.519531 637.59375 529.324219 C 635.558594 533.128906 633.433594 536.886719 631.214844 540.585938 C 628.996094 544.289062 626.6875 547.933594 624.289062 551.523438 C 621.890625 555.113281 619.40625 558.640625 616.835938 562.105469 C 614.261719 565.574219 611.609375 568.976562 608.871094 572.3125 C 606.132812 575.648438 603.3125 578.917969 600.414062 582.113281 C 597.515625 585.3125 594.542969 588.4375 591.488281 591.488281 C 588.4375 594.542969 585.3125 597.515625 582.113281 600.414062 C 578.917969 603.3125 575.648438 606.132812 572.3125 608.871094 C 568.976562 611.609375 565.574219 614.261719 562.105469 616.835938 C 558.640625 619.40625 555.113281 621.890625 551.523438 624.289062 C 547.933594 626.6875 544.289062 628.996094 540.585938 631.214844 C 536.886719 633.433594 533.128906 635.558594 529.324219 637.59375 C 525.519531 639.628906 521.664062 641.570312 517.761719 643.414062 C 513.859375 645.261719 509.914062 647.007812 505.925781 648.660156 C 501.941406 650.3125 497.914062 651.863281 493.851562 653.320312 C 489.785156 654.773438 485.6875 656.125 481.558594 657.378906 C 477.429688 658.632812 473.269531 659.785156 469.082031 660.832031 C 464.894531 661.882812 460.6875 662.828125 456.453125 663.667969 C 452.21875 664.511719 447.96875 665.25 443.699219 665.882812 C 439.429688 666.515625 435.144531 667.042969 430.851562 667.464844 C 426.554688 667.890625 422.253906 668.207031 417.941406 668.417969 C 413.628906 668.628906 409.316406 668.734375 405 668.734375 C 400.683594 668.734375 396.371094 668.628906 392.058594 668.417969 C 387.746094 668.207031 383.445312 667.890625 379.148438 667.464844 C 374.855469 667.042969 370.570312 666.515625 366.300781 665.882812 C 362.03125 665.25 357.78125 664.511719 353.546875 663.667969 C 349.3125 662.828125 345.105469 661.882812 340.917969 660.832031 C 336.730469 659.785156 332.570312 658.632812 328.441406 657.378906 C 324.3125 656.125 320.214844 654.773438 316.148438 653.320312 C 312.085938 651.863281 308.058594 650.3125 304.074219 648.660156 C 300.085938 647.007812 296.140625 645.261719 292.238281 643.414062 C 288.335938 641.570312 284.480469 639.628906 280.675781 637.59375 C 276.867188 635.558594 273.113281 633.433594 269.414062 631.214844 C 265.710938 628.996094 262.066406 626.6875 258.476562 624.289062 C 254.886719 621.890625 251.359375 619.40625 247.894531 616.835938 C 244.425781 614.261719 241.023438 611.609375 237.6875 608.871094 C 234.351562 606.132812 231.082031 603.3125 227.886719 600.414062 C 224.6875 597.515625 221.5625 594.542969 218.511719 591.488281 C 215.457031 588.4375 212.484375 585.3125 209.585938 582.113281 C 206.6875 578.917969 203.867188 575.648438 201.128906 572.3125 C 198.390625 568.976562 195.738281 565.574219 193.164062 562.105469 C 190.59375 558.640625 188.109375 555.113281 185.710938 551.523438 C 183.3125 547.933594 181.003906 544.289062 178.785156 540.585938 C 176.566406 536.886719 174.441406 533.128906 172.40625 529.324219 C 170.371094 525.519531 168.429688 521.664062 166.585938 517.761719 C 164.738281 513.859375 162.992188 509.914062 161.339844 505.925781 C 159.6875 501.941406 158.136719 497.914062 156.679688 493.851562 C 155.226562 489.785156 153.875 485.6875 152.621094 481.558594 C 151.367188 477.429688 150.214844 473.269531 149.167969 469.082031 C 148.117188 464.894531 147.171875 460.6875 146.332031 456.453125 C 145.488281 452.21875 144.75 447.96875 144.117188 443.699219 C 143.484375 439.429688 142.957031 435.144531 142.535156 430.851562 C 142.109375 426.554688 141.792969 422.253906 141.582031 417.941406 C 141.371094 413.628906 141.265625 409.316406 141.265625 405 C 141.265625 400.683594 141.371094 396.371094 141.582031 392.058594 C 141.792969 387.746094 142.109375 383.445312 142.535156 379.148438 C 142.957031 374.855469 143.484375 370.570312 144.117188 366.300781 C 144.75 362.03125 145.488281 357.78125 146.332031 353.546875 C 147.171875 349.3125 148.117188 345.105469 149.167969 340.917969 C 150.214844 336.730469 151.367188 332.570312 152.621094 328.441406 C 153.875 324.3125 155.226562 320.214844 156.679688 316.148438 C 158.136719 312.085938 159.6875 308.058594 161.339844 304.074219 C 162.992188 300.085938 164.738281 296.140625 166.585938 292.238281 C 168.429688 288.335938 170.371094 284.480469 172.40625 280.675781 C 174.441406 276.867188 176.566406 273.113281 178.785156 269.414062 C 181.003906 265.710938 183.3125 262.066406 185.710938 258.476562 C 188.109375 254.886719 190.59375 251.359375 193.164062 247.894531 C 195.738281 244.425781 198.390625 241.023438 201.128906 237.6875 C 203.867188 234.351562 206.6875 231.082031 209.585938 227.886719 C 212.484375 224.6875 215.457031 221.5625 218.511719 218.511719 C 221.5625 215.457031 224.6875 212.484375 227.886719 209.585938 C 231.082031 206.6875 234.351562 203.867188 237.6875 201.128906 C 241.023438 198.390625 244.425781 195.738281 247.894531 193.164062 C 251.359375 190.59375 254.886719 188.109375 258.476562 185.710938 C 262.066406 183.3125 265.710938 181.003906 269.414062 178.785156 C 273.113281 176.566406 276.867188 174.441406 280.675781 172.40625 C 284.480469 170.371094 288.335938 168.429688 292.238281 166.585938 C 296.140625 164.738281 300.085938 162.992188 304.074219 161.339844 C 308.058594 159.6875 312.085938 158.136719 316.148438 156.679688 C 320.214844 155.226562 324.3125 153.875 328.441406 152.621094 C 332.570312 151.367188 336.730469 150.214844 340.917969 149.167969 C 345.105469 148.117188 349.3125 147.171875 353.546875 146.332031 C 357.78125 145.488281 362.03125 144.75 366.300781 144.117188 C 370.570312 143.484375 374.855469 142.957031 379.148438 142.535156 C 383.445312 142.109375 387.746094 141.792969 392.058594 141.582031 C 396.371094 141.371094 400.683594 141.265625 405 141.265625 C 409.316406 141.265625 413.628906 141.371094 417.941406 141.582031 C 422.253906 141.792969 426.554688 142.109375 430.851562 142.535156 C 435.144531 142.957031 439.429688 143.484375 443.699219 144.117188 C 447.96875 144.75 452.21875 145.488281 456.453125 146.332031 C 460.6875 147.171875 464.894531 148.117188 469.082031 149.167969 C 473.269531 150.214844 477.429688 151.367188 481.558594 152.621094 C 485.6875 153.875 489.785156 155.226562 493.851562 156.679688 C 497.914062 158.136719 501.941406 159.6875 505.925781 161.339844 C 509.914062 162.992188 513.859375 164.738281 517.761719 166.585938 C 521.664062 168.429688 525.519531 170.371094 529.324219 172.40625 C 533.128906 174.441406 536.886719 176.566406 540.585938 178.785156 C 544.289062 181.003906 547.933594 183.3125 551.523438 185.710938 C 555.113281 188.109375 558.640625 190.59375 562.105469 193.164062 C 565.574219 195.738281 568.976562 198.390625 572.3125 201.128906 C 575.648438 203.867188 578.917969 206.6875 582.113281 209.585938 C 585.3125 212.484375 588.4375 215.457031 591.488281 218.511719 C 594.542969 221.5625 597.515625 224.6875 600.414062 227.886719 C 603.3125 231.082031 606.132812 234.351562 608.871094 237.6875 C 611.609375 241.023438 614.261719 244.425781 616.835938 247.894531 C 619.40625 251.359375 621.890625 254.886719 624.289062 258.476562 C 626.6875 262.066406 628.996094 265.710938 631.214844 269.414062 C 633.433594 273.113281 635.558594 276.867188 637.59375 280.675781 C 639.628906 284.480469 641.570312 288.335938 643.414062 292.238281 C 645.261719 296.140625 647.007812 300.085938 648.660156 304.074219 C 650.3125 308.058594 651.863281 312.085938 653.320312 316.148438 C 654.773438 320.214844 656.125 324.3125 657.378906 328.441406 C 658.632812 332.570312 659.785156 336.730469 660.832031 340.917969 C 661.882812 345.105469 662.828125 349.3125 663.667969 353.546875 C 664.511719 357.78125 665.25 362.03125 665.882812 366.300781 C 666.515625 370.570312 667.042969 374.855469 667.464844 379.148438 C 667.890625 383.445312 668.207031 387.746094 668.417969 392.058594 C 668.628906 396.371094 668.734375 400.683594 668.734375 405 Z M 668.734375 405 " fill-opacity="1" fill-rule="nonzero"/><path fill="#fefefe" d="M 400.464844 570.886719 C 399.816406 570.886719 399.167969 570.886719 398.519531 570.238281 C 362.230469 547.558594 332.425781 518.398438 310.390625 483.40625 C 292.246094 455.542969 279.289062 423.792969 270.863281 388.800781 C 257.257812 329.832031 262.441406 283.824219 262.441406 281.878906 C 262.441406 279.9375 264.382812 277.992188 266.976562 278.640625 C 301.320312 281.230469 335.015625 270.863281 357.046875 261.144531 C 381.671875 250.777344 397.871094 239.761719 397.871094 239.761719 C 399.167969 239.113281 401.113281 239.113281 402.40625 239.761719 C 402.40625 239.761719 419.257812 250.777344 443.230469 261.144531 C 465.910156 270.863281 499.609375 281.230469 533.953125 278.640625 C 535.894531 277.992188 537.839844 279.9375 538.488281 281.878906 C 538.488281 283.824219 542.375 320.113281 533.304688 370.007812 C 528.769531 353.160156 513.214844 341.496094 495.070312 341.496094 L 469.152344 341.496094 C 447.121094 341.496094 428.976562 359.640625 428.976562 381.671875 L 428.976562 419.902344 C 417.960938 421.847656 409.535156 430.921875 409.535156 442.585938 L 409.535156 537.191406 C 409.535156 545.617188 414.71875 553.390625 421.199219 557.28125 C 415.367188 561.816406 408.886719 566.351562 402.40625 570.238281 C 401.761719 570.886719 401.113281 570.886719 400.464844 570.886719 Z M 400.464844 570.886719 " fill-opacity="1" fill-rule="evenodd"/><path fill="#fefefe" d="M 532.007812 554.039062 L 432.863281 554.039062 C 423.792969 554.039062 416.015625 546.265625 416.015625 537.191406 L 416.015625 442.585938 C 416.015625 433.511719 423.792969 425.734375 432.863281 425.734375 L 532.007812 425.734375 C 541.078125 425.734375 548.855469 433.511719 548.855469 442.585938 L 548.855469 537.191406 C 548.855469 546.265625 541.078125 554.039062 532.007812 554.039062 Z M 488.59375 506.734375 L 476.28125 506.734375 C 474.335938 506.734375 472.390625 504.792969 472.390625 502.847656 L 472.390625 480.167969 C 467.855469 476.929688 465.265625 471.742188 465.265625 466.558594 C 465.265625 456.839844 473.039062 449.0625 482.113281 449.0625 C 491.832031 449.0625 499.609375 456.839844 499.609375 466.558594 C 499.609375 471.742188 497.015625 476.929688 492.480469 480.167969 L 492.480469 502.847656 C 492.480469 504.792969 490.535156 506.734375 488.59375 506.734375 Z M 480.167969 498.960938 L 484.703125 498.960938 L 484.703125 478.222656 C 484.703125 476.929688 485.351562 475.632812 486.648438 474.984375 C 489.886719 473.039062 491.832031 469.800781 491.832031 466.558594 C 491.832031 461.375 487.945312 456.839844 482.761719 456.839844 C 477.574219 456.839844 473.039062 461.375 473.039062 466.558594 C 473.039062 469.800781 474.984375 473.039062 478.222656 474.984375 C 479.519531 475.632812 480.167969 476.929688 480.167969 478.222656 Z M 480.167969 498.960938 " fill-opacity="1" fill-rule="evenodd"/><path fill="#fefefe" d="M 524.878906 433.511719 L 506.089844 433.511719 C 504.144531 433.511719 502.199219 432.214844 502.199219 429.625 L 502.199219 396.574219 C 502.199219 385.558594 493.128906 376.488281 482.113281 376.488281 C 471.097656 376.488281 462.023438 385.558594 462.023438 396.574219 L 462.023438 429.625 C 462.023438 432.214844 460.078125 433.511719 458.136719 433.511719 L 439.34375 433.511719 C 437.398438 433.511719 435.457031 432.214844 435.457031 429.625 L 435.457031 381.671875 C 435.457031 362.878906 450.359375 347.976562 469.152344 347.976562 L 495.070312 347.976562 C 513.863281 347.976562 528.769531 362.878906 528.769531 381.671875 L 528.769531 429.625 C 528.769531 430.921875 528.769531 431.566406 527.472656 432.214844 C 526.824219 433.511719 526.175781 433.511719 524.878906 433.511719 Z M 506.089844 433.511719 L 458.136719 433.511719 C 456.191406 433.511719 454.246094 432.214844 454.246094 429.625 L 454.246094 396.574219 C 454.246094 381.023438 466.558594 368.710938 482.113281 368.710938 C 497.664062 368.710938 509.976562 381.023438 509.976562 396.574219 L 509.976562 429.625 C 509.976562 432.214844 508.03125 433.511719 506.089844 433.511719 Z M 506.089844 433.511719 " fill-opacity="1" fill-rule="evenodd"/></svg>